<svg height="300pt" preserveAspectRatio="xMidYMid meet" viewBox="0 0 300 300" width="300pt" xmlns="http://www.w3.org/2000/svg"><path d="m1526 2853c-4-82-13-232-20-336l-14-187-108-118c-304-328-441-455-616-569-132-87-198-115-283-120-61-4-76-1-116 20-40 22-48 23-64 10-15-10-17-17-9-30 18-28 110-73 163-80 50-6 68-24 36-37-8-3-15-1-15 4 0 13-43-32-57-61-6-13-15-35-18-48-5-16-10-20-15-11-10 16-24-5-27-40-1-14-5-50-9-81l-6-56 32-12c49-17 120-13 191 9 35 10 64 18 64 17s-1-65-3-141l-4-139-77 6c-66 6-106 14-209 43l-23 6 3-148c3-138 4-148 23-154 18-5 20-13 20-103v-97h-25c-66 0-230 60-300 110-15 11-31 20-34 20s-6-47-6-104c0-95 2-105 24-129 31-33 190-108 233-110 17 0 29-5 26-11-3-5-2-6 4-3 5 3 52-2 104-12 52-11 128-22 169-26 180-15 333-42 469-81 46-13 93-26 105-28 11-3 37-10 56-15 23-8 327-11 922-11h888v498 497l-41 28c-26 19-38 34-35 45 2 10 8 50 11 91 4 41 20 110 36 154l29 79v804 804h-733-734z" transform="matrix(.1 0 0 -.1 0 300)"/></svg>